<svg width="2512" height="1579.2" xmlns="http://www.w3.org/2000/svg" xmlns:xlink="http://www.w3.org/1999/xlink" xml:space="preserve">
 <g>
  <title>Layer 1</title>
  <g id="svg_134">
   <g id="svg_135">
    <g id="svg_136">
     <g id="svg_137">
      <defs>
       <polygon id="SVGID_108_" points="1143.6,766.1 1738.3,766.1 1738.3,1094.4 1123.6,1084.4 "/>
      </defs>
      <clipPath id="SVGID_109_">
       <use xlink:href="#SVGID_108_" id="svg_138"/>
      </clipPath>
     </g>
    </g>
   </g>
  </g>
  <g id="svg_322">
   <defs>
    <path id="SVGID_286_" d="m2075.2,521c-0.9,-0.9 -2.4,-1.2 -3.6,-0.6c-1.6,0.8 -2.2,2.7 -1.5,4.3c0.8,1.6 2.7,2.2 4.3,1.5c1.3,-0.6 1.9,-1.9 1.8,-3.3l29.8,-14.6l24.9,8.4l1,-1.9l-26,-8.8l-30.7,15z"/>
   </defs>
   <clipPath id="SVGID_287_">
    <use xlink:href="#SVGID_286_" id="svg_323"/>
   </clipPath>
   <defs>
    <filter id="Adobe_OpacityMaskFilter_6_" x="2059.3" y="476.3" width="82.4" height="80.4"/>
   </defs>
   <mask maskUnits="userSpaceOnUse" x="2059.3" y="476.3" width="82.4" height="80.4" id="SVGID_288_">
    <g class="st104" filter="url(#Adobe_OpacityMaskFilter_6_)" id="svg_324">
     <polygon class="st105" points="2109.9,476.3 2141.7,519.6 2091.1,556.7 2059.3,513.3 " clip-path="url(#SVGID_287_)" fill="url(#SVGID_289_)" id="svg_325"/>
    </g>
   </mask>
   <polygon class="st106" points="2109.9,476.3 2141.7,519.6 2091.1,556.7 2059.3,513.3 " clip-path="url(#SVGID_287_)" mask="url(#SVGID_288_)" fill="url(#SVGID_290_)" id="svg_326"/>
  </g>
  <g id="svg_332">
   <defs>
    <path id="SVGID_296_" d="m2098.4,525.3c-0.9,-0.9 -2.4,-1.2 -3.6,-0.6c-1.6,0.8 -2.2,2.7 -1.5,4.3c0.8,1.6 2.7,2.2 4.3,1.5c1.3,-0.6 1.9,-2 1.8,-3.3l7.2,-3.6l15.1,5.1l1.6,-1.7l-16.9,-5.7l-8,4z"/>
   </defs>
   <clipPath id="SVGID_297_">
    <use xlink:href="#SVGID_296_" id="svg_333"/>
   </clipPath>
   <defs>
    <filter id="Adobe_OpacityMaskFilter_8_" x="2087.9" y="506.6" width="40.2" height="39.2"/>
   </defs>
   <mask maskUnits="userSpaceOnUse" x="2087.9" y="506.6" width="40.2" height="39.2" id="SVGID_298_">
    <g class="st110" filter="url(#Adobe_OpacityMaskFilter_8_)" id="svg_334">
     <polygon class="st111" points="2112.6,506.6 2128,527.7 2103.3,545.9 2087.9,524.8 " clip-path="url(#SVGID_297_)" fill="url(#SVGID_299_)" id="svg_335"/>
    </g>
   </mask>
   <polygon class="st112" points="2112.6,506.6 2128,527.7 2103.3,545.9 2087.9,524.8 " clip-path="url(#SVGID_297_)" mask="url(#SVGID_298_)" fill="url(#SVGID_300_)" id="svg_336"/>
  </g>
  <g id="svg_357">
   <defs>
    <path id="SVGID_321_" d="m2123.9,447.4c-0.6,1.7 0.3,3.5 2,4c1.3,0.5 2.7,0 3.5,-1.1l27.7,9.4l-0.2,-2.3l-26.8,-9.1c0,-1.3 -0.8,-2.5 -2.2,-3c-0.3,-0.1 -0.7,-0.2 -1,-0.2c-1.3,0.1 -2.5,0.9 -3,2.3"/>
   </defs>
   <clipPath id="SVGID_322_">
    <use xlink:href="#SVGID_321_" id="svg_358"/>
   </clipPath>
   <defs>
    <filter id="Adobe_OpacityMaskFilter_13_" x="2116.4" y="429.1" width="47.7" height="46.8"/>
   </defs>
   <mask maskUnits="userSpaceOnUse" x="2116.4" y="429.1" width="47.7" height="46.8" id="SVGID_323_">
    <g class="st125" filter="url(#Adobe_OpacityMaskFilter_13_)" id="svg_359">
     <polygon class="st126" points="2145.4,429.1 2164.1,454.7 2135.1,475.9 2116.4,450.3 " clip-path="url(#SVGID_322_)" fill="url(#SVGID_324_)" id="svg_360"/>
    </g>
   </mask>
   <polygon class="st127" points="2145.4,429.1 2164.1,454.7 2135.1,475.9 2116.4,450.3 " clip-path="url(#SVGID_322_)" mask="url(#SVGID_323_)" fill="url(#SVGID_325_)" id="svg_361"/>
  </g>
  <g id="svg_362">
   <defs>
    <path id="SVGID_326_" d="m2106.6,440.2c-0.6,1.7 0.3,3.5 2,4c0.5,0.2 1,0.2 1.4,0.1l3.9,8l41.7,14.3l1,2.1l0.2,-3.9l-41.4,-14.2l-3.6,-7.2c0.3,-0.3 0.6,-0.7 0.8,-1.2c0.6,-1.7 -0.3,-3.5 -2,-4c-0.3,-0.1 -0.7,-0.2 -1,-0.2c-1.3,0 -2.5,0.8 -3,2.2"/>
   </defs>
   <clipPath id="SVGID_327_">
    <use xlink:href="#SVGID_326_" id="svg_363"/>
   </clipPath>
   <defs>
    <filter id="Adobe_OpacityMaskFilter_14_" x="2091.4" y="413.8" width="80.2" height="79.2"/>
   </defs>
   <mask maskUnits="userSpaceOnUse" x="2091.4" y="413.8" width="80.2" height="79.2" id="SVGID_328_">
    <g class="st128" filter="url(#Adobe_OpacityMaskFilter_14_)" id="svg_364">
     <polygon class="st129" points="2139.2,413.8 2171.6,458.1 2123.8,493 2091.4,448.8 " clip-path="url(#SVGID_327_)" fill="url(#SVGID_329_)" id="svg_365"/>
    </g>
   </mask>
   <polygon class="st130" points="2139.2,413.8 2171.6,458.1 2123.8,493 2091.4,448.8 " clip-path="url(#SVGID_327_)" mask="url(#SVGID_328_)" fill="url(#SVGID_330_)" id="svg_366"/>
  </g>
  <g id="svg_367">
   <defs>
    <path id="SVGID_331_" d="m2137.4,466.8c-0.6,1.7 0.3,3.5 2,4c1.3,0.5 2.7,0 3.6,-1.1l7.6,2.6l3.8,7.6l0.8,-3.1l-3.1,-6.3l-8.5,-2.9c0,-1.3 -0.8,-2.5 -2.2,-3c-0.3,-0.1 -0.7,-0.2 -1,-0.2c-1.3,0.3 -2.6,1.1 -3,2.4"/>
   </defs>
   <clipPath id="SVGID_332_">
    <use xlink:href="#SVGID_331_" id="svg_368"/>
   </clipPath>
   <defs>
    <filter id="Adobe_OpacityMaskFilter_15_" x="2129.5" y="455.9" width="32.9" height="32.8"/>
   </defs>
   <mask maskUnits="userSpaceOnUse" x="2129.5" y="455.9" width="32.9" height="32.8" id="SVGID_333_">
    <g class="st131" filter="url(#Adobe_OpacityMaskFilter_15_)" id="svg_369">
     <polygon class="st132" points="2148.7,455.9 2162.4,474.6 2143.2,488.7 2129.5,470 " clip-path="url(#SVGID_332_)" fill="url(#SVGID_334_)" id="svg_370"/>
    </g>
   </mask>
   <polygon class="st133" points="2148.7,455.9 2162.4,474.6 2143.2,488.7 2129.5,470 " clip-path="url(#SVGID_332_)" mask="url(#SVGID_333_)" fill="url(#SVGID_335_)" id="svg_371"/>
  </g>
  <g id="svg_407">
   <defs>
    <path id="SVGID_371_" d="m2088.1,407.9c-1.3,0.5 -2.2,1.7 -2.2,3l-17.8,6.5l-2.4,5l1.1,2.5l2.8,-5.8l17,-6.2c0.8,1 2.2,1.5 3.5,1c1.7,-0.6 2.6,-2.4 2,-4c-0.5,-1.3 -1.7,-2.2 -3,-2.2c-0.3,0 -0.7,0.1 -1,0.2"/>
   </defs>
   <clipPath id="SVGID_372_">
    <use xlink:href="#SVGID_371_" id="svg_408"/>
   </clipPath>
   <defs>
    <filter id="Adobe_OpacityMaskFilter_23_" x="2057.5" y="394.9" width="43.3" height="42.9"/>
   </defs>
   <mask maskUnits="userSpaceOnUse" x="2057.5" y="394.9" width="43.3" height="42.9" id="SVGID_373_">
    <g class="st155" filter="url(#Adobe_OpacityMaskFilter_23_)" id="svg_409">
     <polygon class="st156" points="2083.3,394.9 2100.9,418.9 2075.1,437.7 2057.5,413.7 " clip-path="url(#SVGID_372_)" fill="url(#SVGID_374_)" id="svg_410"/>
    </g>
   </mask>
   <polygon class="st157" points="2083.3,394.9 2100.9,418.9 2075.1,437.7 2057.5,413.7 " clip-path="url(#SVGID_372_)" mask="url(#SVGID_373_)" fill="url(#SVGID_375_)" id="svg_411"/>
  </g>
  <g id="svg_417">
   <defs>
    <path id="SVGID_381_" d="m2110,410.4l1,1.9l5.3,-1.8l6.4,3.2c-0.2,1.3 0.5,2.7 1.8,3.3c1.6,0.8 3.5,0.1 4.3,-1.5c0.8,-1.6 0.1,-3.5 -1.5,-4.3c-1.2,-0.6 -2.7,-0.3 -3.6,0.6l-7.2,-3.6l-6.5,2.2z"/>
   </defs>
   <clipPath id="SVGID_382_">
    <use xlink:href="#SVGID_381_" id="svg_418"/>
   </clipPath>
   <defs>
    <filter id="Adobe_OpacityMaskFilter_25_" x="2105.4" y="398.9" width="28.6" height="28.1"/>
   </defs>
   <mask maskUnits="userSpaceOnUse" x="2105.4" y="398.9" width="28.6" height="28.1" id="SVGID_383_">
    <g class="st161" filter="url(#Adobe_OpacityMaskFilter_25_)" id="svg_419">
     <polygon class="st162" points="2122.7,398.9 2134,414.4 2116.8,427.1 2105.4,411.6 " clip-path="url(#SVGID_382_)" fill="url(#SVGID_384_)" id="svg_420"/>
    </g>
   </mask>
   <polygon class="st163" points="2122.7,398.9 2134,414.4 2116.8,427.1 2105.4,411.6 " clip-path="url(#SVGID_382_)" mask="url(#SVGID_383_)" fill="url(#SVGID_385_)" id="svg_421"/>
  </g>
  <g id="svg_438">
   <defs>
    <path id="SVGID_402_" d="m2065.7,1312.8c-15.3,11.4 -20.5,23.4 -11.6,27c9,3.5 28.7,-2.8 44,-14.2c15.3,-11.4 20.5,-23.4 11.6,-27c-1.7,-0.7 -3.7,-1 -6,-1c-10.1,0.1 -25.5,6 -38,15.2"/>
   </defs>
   <clipPath id="SVGID_403_">
    <use xlink:href="#SVGID_402_" id="svg_439"/>
   </clipPath>
   <polygon class="st172" points="2136.3,1335.9 2057.1,1369.2 2027.6,1305 2106.8,1271.8 " clip-path="url(#SVGID_403_)" fill="url(#SVGID_404_)" id="svg_440"/>
  </g>
  <g id="svg_447">
   <defs>
    <path id="SVGID_411_" d="m2131.9,1279.2l21.2,12.1c1.2,0.7 2.7,0.7 4,0l21.2,-12.1l-23.2,-13.3l-23.2,13.3z"/>
   </defs>
   <clipPath id="SVGID_412_">
    <use xlink:href="#SVGID_411_" id="svg_448"/>
   </clipPath>
   <rect x="2131.9" y="1265.9" class="st175" width="46.4" height="26.1" clip-path="url(#SVGID_412_)" fill="url(#SVGID_413_)" id="svg_449"/>
  </g>
  <g id="svg_453">
   <defs>
    <path id="SVGID_417_" d="m2155.1,1212l0,54.1c0,0 0.4,0 0.8,0.2s22.4,12.8 22.4,12.8l45.1,-25.9c1.2,-0.7 1.2,-2.4 0,-3.1l-66.1,-37.8c-0.4,-0.3 -0.9,-0.4 -1.5,-0.4l-0.7,0l0,0.1z"/>
   </defs>
   <clipPath id="SVGID_418_">
    <use xlink:href="#SVGID_417_" id="svg_454"/>
   </clipPath>
   <polygon class="st177" points="2246.4,1271.1 2163.4,1301.8 2133.3,1220.1 2216.2,1189.5 " clip-path="url(#SVGID_418_)" fill="url(#SVGID_419_)" id="svg_455"/>
  </g>
  <g id="svg_459">
   <defs>
    <polygon id="SVGID_423_" points="1976.7,1253.6 1976,1253.9 1975.9,1253.9 1975.8,1253.9 1975.9,1253.8 1970.2,1252.6 1960.9,1252.6 1949.1,1255.5 1939.5,1261.5 1934.6,1266.9 1933.3,1267.2 1925.2,1269.1 1921.4,1270.8 1922.3,1272.8 1931.3,1281.5 1940.2,1287.8 1950.1,1292.5 1954.3,1294.7 1959.4,1297.3 1968.6,1300.9 1979.4,1304.5 1989.8,1306.3 1994.5,1307 2002.1,1308.1 2015.8,1307.8 2024.7,1306.2 2025.7,1306 2030.1,1304.3 2038.2,1302.4 2046.2,1298.8 2051.6,1294.1 2052.7,1291.9 2046.9,1284 2037.3,1274.4 2027.2,1267 2016.6,1261.6 2006.1,1258.6 2003.2,1258.4 2003.2,1258.4 1996.4,1254.5 1989,1252.6 1982.2,1252.5 "/>
   </defs>
   <clipPath id="SVGID_424_">
    <use xlink:href="#SVGID_423_" id="svg_460"/>
   </clipPath>
   <rect x="1921.4" y="1252.5" class="st179" width="131.3" height="55.6" clip-path="url(#SVGID_424_)" fill="url(#SVGID_425_)" id="svg_461"/>
  </g>
  <g id="svg_462">
   <defs>
    <path id="SVGID_426_" d="m2116.6,1204.9l0,0l0,0z"/>
   </defs>
   <clipPath id="SVGID_427_">
    <use xlink:href="#SVGID_426_" id="svg_463"/>
   </clipPath>
   <circle class="st180" cx="2116.6" cy="1204.9" r="0" clip-path="url(#SVGID_427_)" fill="url(#SVGID_428_)" id="svg_464"/>
  </g>
  <g id="svg_465">
   <defs>
    <path id="SVGID_429_" d="m2009.7,1484.6c0,0.8 0.6,1.7 1.6,1.8l103.6,10.1c1,0.1 1.8,-0.6 1.9,-1.5c0.1,-0.5 0,-38.8 0,-38.8l-107.2,-10.3c0.1,0 0.1,38.1 0.1,38.7"/>
   </defs>
   <clipPath id="SVGID_430_">
    <use xlink:href="#SVGID_429_" id="svg_466"/>
   </clipPath>
   <polygon class="st181" points="2003,1446.8 2115,1431.7 2123.7,1495.7 2011.7,1510.8 " clip-path="url(#SVGID_430_)" fill="url(#SVGID_431_)" id="svg_467"/>
  </g>
  <g id="svg_468">
   <defs>
    <path id="SVGID_432_" d="m2076.2,1411.6l-65.5,32.6c-1.6,0.8 -1.2,3.2 0.6,3.3l103.6,10.1c1.6,0.2 2.6,-1.7 1.5,-2.9l-36.2,-42.4c-0.6,-0.8 -1.6,-1.2 -2.5,-1.2c-0.5,0.2 -1,0.3 -1.5,0.5"/>
   </defs>
   <clipPath id="SVGID_433_">
    <use xlink:href="#SVGID_432_" id="svg_469"/>
   </clipPath>
   <polygon class="st182" points="1996.9,1414.7 2109.4,1382.8 2129.7,1454.4 2017.2,1486.3 " clip-path="url(#SVGID_433_)" fill="url(#SVGID_434_)" id="svg_470"/>
  </g>
  <g id="svg_582">
   <defs>
    <path id="SVGID_546_" d="m2203,973.5l-45.4,15.9c0,0 0,33.3 0,34.8c0,0.3 0,0.6 0.1,0.9c0,0 0,0 0,0c0.1,0.5 0.3,0.9 0.6,1.4l0,0l0,0c0.5,0.8 1.3,1.5 2.4,2.2l40.9,23.6c4.2,2.4 10.9,2.4 15.1,0l42.3,-24c1.1,-0.6 1.9,-1.4 2.4,-2.2l0,0l0,0c0.3,-0.4 0.5,-0.9 0.6,-1.4c0.1,-0.2 0.1,-0.5 0.1,-0.7c0.1,-1.6 0,-35 0,-35l-44,-15.5c-2.1,-1.2 -4.8,-1.8 -7.5,-1.8c-2.8,0 -5.6,0.6 -7.6,1.8"/>
   </defs>
   <clipPath id="SVGID_547_">
    <use xlink:href="#SVGID_546_" id="svg_583"/>
   </clipPath>
   <rect x="2157.5" y="971.7" class="st248" width="104.5" height="82.9" clip-path="url(#SVGID_547_)" fill="url(#SVGID_548_)" id="svg_584"/>
  </g>
  <g id="svg_585">
   <defs>
    <path id="SVGID_549_" d="m2203,961l-42.3,24c-2.4,1.4 -3.4,3.3 -3,5.1c0,0 0,0 0,0c0.1,0.5 0.3,0.9 0.6,1.4l0,0l0,0c0.5,0.8 1.3,1.5 2.4,2.2l40.9,23.6c4.2,2.4 10.9,2.4 15.1,0l42.3,-24c1.1,-0.6 1.9,-1.4 2.4,-2.2l0,0l0,0c0.3,-0.4 0.5,-0.9 0.6,-1.4c0.4,-1.8 -0.6,-3.7 -3,-5.1l-41,-23.6c-2.1,-1.2 -4.8,-1.8 -7.5,-1.8c-2.7,0 -5.5,0.6 -7.5,1.8"/>
   </defs>
   <clipPath id="SVGID_550_">
    <use xlink:href="#SVGID_549_" id="svg_586"/>
   </clipPath>
   <polygon class="st249" points="2149.7,960.2 2260.7,946.2 2269.8,1018.7 2158.8,1032.7 " clip-path="url(#SVGID_550_)" fill="url(#SVGID_551_)" id="svg_587"/>
  </g>
  <g stroke="null">
   <path stroke="null" fill="#F05138" d="m816.67834,661.44591c0,-7.17503 0,-14.35007 0,-21.5251c0,-15.78508 -1.43501,-31.57015 -4.30502,-47.35523c-2.87001,-15.78508 -7.17503,-30.13515 -14.35007,-44.48522c-7.17503,-14.35007 -15.78508,-27.26513 -27.26513,-37.31018c-11.48006,-11.48006 -24.39512,-20.0901 -37.31018,-27.26513c-14.35007,-7.17503 -28.70014,-11.48006 -44.48522,-14.35007c-15.78508,-2.87001 -31.57015,-4.30502 -47.35523,-4.30502c-7.17503,0 -14.35007,0 -21.5251,0c-8.61004,0 -17.22008,0 -25.83013,0l-187.98591,0l-77.49038,0c-8.61004,0 -17.22008,0 -25.83013,0c-7.17503,0 -14.35007,0 -21.5251,0c-4.30502,0 -7.17503,0 -11.48006,0c-11.48006,0 -22.96011,1.43501 -34.44017,4.30502c-12.91506,2.87001 -22.96011,5.74003 -34.44017,10.04505c-2.87001,1.43501 -7.17503,2.87001 -10.04505,4.30502c-10.04505,5.74003 -20.0901,11.48006 -28.70014,20.0901c-4.30502,2.87001 -7.17503,4.30502 -10.04505,7.17503c-10.04505,11.48006 -20.0901,24.39512 -27.26513,38.74519c-7.17503,14.35007 -11.48006,28.70014 -14.35007,44.48522c-2.87001,14.35007 -2.87001,30.13515 -4.30502,45.92022c0,7.17503 0,14.35007 0,21.5251c0,8.61004 0,17.22008 0,25.83013l0,116.23556l0,149.24072c0,8.61004 0,17.22008 0,25.83013c0,7.17503 0,14.35007 0,21.5251c0,15.78508 1.43501,31.57015 4.30502,47.35523c2.87001,15.78508 7.17503,30.13515 14.35007,44.48522c7.17503,14.35007 15.78508,27.26513 27.26513,37.31018c11.48006,10.04505 24.39512,20.0901 38.74519,27.26513c14.35007,7.17503 28.70014,11.48006 44.48522,14.35007c15.78508,2.87001 31.57015,4.30502 47.35523,4.30502c7.17503,0 14.35007,0 21.5251,0c8.61004,0 17.22008,0 25.83013,0l264.04128,0c8.61004,0 17.22008,0 25.83013,0c7.17503,0 14.35007,0 21.5251,0c15.78508,0 31.57015,-1.43501 47.35523,-4.30502c15.78508,-2.87001 30.13515,-7.17503 44.48522,-14.35007c14.35007,-7.17503 27.26513,-15.78508 37.31018,-27.26513c11.48006,-11.48006 20.0901,-24.39512 27.26513,-37.31018c7.17503,-14.35007 11.48006,-28.70014 14.35007,-44.48522c2.87001,-15.78508 4.30502,-31.57015 4.30502,-47.35523c0,-7.17503 0,-14.35007 0,-21.5251c0,-8.61004 0,-17.22008 0,-25.83013l0,-265.47629c0,-8.61004 0,-17.22008 0,-25.83013z" class="st0"/>
   <path stroke="null" fill="#FFFFFF" d="m668.87262,903.96209c0,-1.43501 0,-1.43501 0,0c1.43501,-2.87001 1.43501,-5.74003 2.87001,-8.61004c30.13515,-117.67057 -43.05021,-256.86625 -163.59079,-330.0516c53.09526,71.75035 77.49038,159.28577 55.96527,236.77615c-1.43501,7.17503 -4.30502,12.91506 -7.17503,20.0901c-2.87001,-1.43501 -5.74003,-4.30502 -10.04505,-5.74003c0,0 -120.54059,-74.62036 -252.56123,-206.641c-2.87001,-2.87001 70.31534,104.75551 153.54575,192.29093c-40.1802,-22.96011 -149.24072,-101.88549 -219.55607,-165.0258c8.61004,14.35007 18.65509,27.26513 30.13515,41.6152c57.40028,73.18536 133.45565,163.59079 223.86109,233.90614c-63.14031,38.74519 -153.54575,41.6152 -242.51618,0c-21.5251,-10.04505 -43.05021,-22.96011 -61.7053,-37.31018c37.31018,60.27029 96.14547,113.36555 166.46081,143.5007c84.66541,35.87517 167.89582,34.44017 231.03612,0l0,0c0,0 0,0 1.43501,0c2.87001,-1.43501 5.74003,-2.87001 7.17503,-4.30502c30.13515,-15.78508 88.97043,-31.57015 121.97559,30.13515c7.17503,14.35007 24.39512,-66.01032 -37.31018,-140.63068z" class="st1"/>
   <path stroke="null" d="m1086.45965,925.48719c5.74003,48.79024 53.09526,81.7954 117.67057,81.7954c61.7053,0 106.19052,-33.00516 106.19052,-77.49038c0,-38.74519 -27.26513,-61.7053 -88.97043,-77.49038l-60.27029,-14.35007c-86.10042,-21.5251 -126.28061,-60.27029 -126.28061,-124.84561c0,-78.92538 68.88033,-134.89065 167.89582,-134.89065c96.14547,0 163.59079,55.96527 166.46081,134.89065l-63.14031,0c-4.30502,-48.79024 -44.48522,-78.92538 -104.75551,-78.92538c-58.83529,0 -100.45049,30.13515 -100.45049,74.62036c0,34.44017 25.83013,54.53026 87.53542,71.75035l50.22524,12.91506c97.58047,24.39512 137.76067,61.7053 137.76067,130.58563c0,86.10042 -68.88033,140.63068 -177.94086,140.63068c-101.88549,0 -170.76583,-54.53026 -176.50586,-137.76067l64.57531,-1.43501l0,0zm694.54337,130.58563l-64.57531,0l-74.62036,-261.17127l0,0l-74.62036,259.73626l-64.57531,0l-94.71046,-341.53166l61.7053,0l66.01032,274.08633l1.43501,0l74.62036,-274.08633l60.27029,0l74.62036,274.08633l1.43501,0l66.01032,-274.08633l61.7053,0l-94.71046,342.96667zm136.32566,-433.3721c0,-20.0901 17.22008,-37.31018 37.31018,-37.31018c21.5251,0 37.31018,17.22008 37.31018,37.31018c0,20.0901 -17.22008,37.31018 -37.31018,37.31018c-21.5251,1.43501 -37.31018,-15.78508 -37.31018,-37.31018zm5.74003,91.84045l61.7053,0l0,341.53166l-61.7053,0l0,-341.53166zm469.24728,50.22524l0,-50.22524l-66.01032,0l0,-81.7954l-61.7053,0l0,81.7954l-50.22524,0l-68.88033,0l0,-30.13515c0,-30.13515 11.48006,-43.05021 40.1802,-43.05021c8.61004,0 18.65509,1.43501 25.83013,2.87001l0,-48.79024c-11.48006,-1.43501 -21.5251,-2.87001 -33.00516,-2.87001c-66.01032,0 -94.71046,27.26513 -94.71046,91.84045l0,31.57015l-47.35523,0l0,50.22524l47.35523,0l0,291.30641l61.7053,0l0,-292.74142l68.88033,0l50.22524,0l0,200.90098c0,66.01032 25.83013,91.84045 90.40544,91.84045c14.35007,0 30.13515,-1.43501 37.31018,-2.87001l0,-50.22524c-4.30502,0 -17.22008,1.43501 -22.96011,1.43501c-28.70014,0 -41.6152,-14.35007 -41.6152,-44.48522l0,-196.59595l64.57531,0z"/>
  </g>
 </g>
</svg>